<svg width="393" height="491" viewBox="0 0 393 491" fill="none" xmlns="http://www.w3.org/2000/svg">
<path d="M319.343 245.551C359.936 245.551 392.843 278.458 392.843 319.051C392.843 373.739 370.354 417.554 333.448 447.176C297.125 476.331 248.444 490.551 196.843 490.551C145.242 490.551 96.5606 476.331 60.2384 447.176C23.3326 417.554 0.843018 373.739 0.843018 319.051C0.843018 280.847 29.992 249.449 67.2636 245.887L74.342 245.551H319.343ZM196.843 0.550781C250.967 0.550781 294.843 44.4268 294.843 98.5508C294.843 152.675 250.967 196.551 196.843 196.551C142.719 196.551 98.843 152.675 98.843 98.5508C98.843 44.4268 142.719 0.550781 196.843 0.550781Z" fill="#212121"/>
</svg>
